<?xml version="1.0" standalone="no"?>
<!DOCTYPE svg PUBLIC "-//W3C//DTD SVG 20010904//EN"
 "http://www.w3.org/TR/2001/REC-SVG-20010904/DTD/svg10.dtd">
<svg version="1.0" xmlns="http://www.w3.org/2000/svg"
 width="200.000000pt" height="200.000000pt" viewBox="0 0 200.000000 200.000000"
 preserveAspectRatio="xMidYMid meet">
<metadata>
Created by potrace 1.10, written by Peter Selinger 2001-2011
</metadata>
<g transform="translate(0.000000,200.000000) scale(0.050000,-0.050000)"
fill="#04af4d" stroke="none">
<path d="M2102 2797 c-272 -45 -587 -323 -670 -590 l-13 -43 165 48 c366 106
705 154 1016 144 l190 -6 -120 -27 c-119 -27 -211 -55 -640 -191 -609 -193
-995 -347 -1525 -608 -312 -153 -332 -176 -54 -62 288 118 637 230 808 258
166 28 140 40 260 -126 258 -356 885 -354 1431 4 204 133 750 695 750 771 0
33 -582 292 -850 378 -209 67 -519 88 -748 50z"/>
</g>
</svg>
